<svg width="0" height="0" class="hidden">
    <symbol xmlns="http://www.w3.org/2000/svg" viewBox="0 0 20 20" id="logOut">
        <path d="M6.52941 10C6.52941 9.83123 6.59758 9.66936 6.71893 9.55002C6.84028 9.43068 7.00486 9.36364 7.17647 9.36364H13V5.22727C13 3.95455 11.6335 3 10.4118 3H4.26471C3.66427 3.00063 3.0886 3.23549 2.66403 3.65305C2.23945 4.07061 2.00064 4.63676 2 5.22727V14.7727C2.00064 15.3632 2.23945 15.9294 2.66403 16.3469C3.0886 16.7645 3.66427 16.9994 4.26471 17H10.7353C11.3357 16.9994 11.9114 16.7645 12.336 16.3469C12.7605 15.9294 12.9994 15.3632 13 14.7727V10.6364H7.17647C7.00486 10.6364 6.84028 10.5693 6.71893 10.45C6.59758 10.3306 6.52941 10.1688 6.52941 10Z" fill="white"></path>
        <path d="M18.8049 9.0771L15.4714 6.16043C15.3453 6.05565 15.1775 5.9981 15.0036 6.00005C14.8298 6.002 14.6637 6.06329 14.5407 6.17085C14.4178 6.27842 14.3478 6.42375 14.3455 6.57587C14.3433 6.72798 14.4091 6.87483 14.5288 6.98512L16.7239 8.90611H13V10.0728H16.7239L14.5288 11.9938C14.4643 12.0474 14.4127 12.1118 14.3771 12.1831C14.3415 12.2545 14.3225 12.3313 14.3214 12.4092C14.3202 12.4871 14.3369 12.5643 14.3705 12.6364C14.404 12.7086 14.4537 12.7741 14.5166 12.8291C14.5795 12.8842 14.6544 12.9277 14.7368 12.957C14.8193 12.9864 14.9076 13.0009 14.9966 13C15.0856 12.999 15.1734 12.9824 15.2549 12.9512C15.3365 12.92 15.4101 12.8749 15.4714 12.8185L18.8049 9.90178C18.9298 9.7924 19 9.64408 19 9.48944C19 9.3348 18.9298 9.18648 18.8049 9.0771V9.0771Z" fill="white"></path>
    </symbol>
    <symbol  xmlns="http://www.w3.org/2000/svg" viewBox="0 0 14 14" id="cross">
        <path d="M13 1L1 13M1 1L13 13"  stroke-width="1.5" stroke-linecap="round"></path>
    </symbol>
    <symbol  xmlns="http://www.w3.org/2000/svg" viewBox="0 0 14 14" id="plus">
        <path d="M7 1.375V12.625"  stroke-width="1.25" stroke-linecap="round" stroke-linejoin="round"></path>
        <path d="M12.625 7H1.375"  stroke-width="1.25" stroke-linecap="round" stroke-linejoin="round"></path>
    </symbol>
    <symbol id="empty" xmlns="http://www.w3.org/2000/svg" xmlns:xlink="http://www.w3.org/1999/xlink" enable-background="new 0 0 512 512" xml:space="preserve" viewBox="0 0 512 512">
    <path d="M256,0C114.6,0,0,114.6,0,256s114.6,256,256,256s256-114.6,256-256S397.4,0,256,0z M64,256c0-106.1,86-192,192-192
	c42.1,0,81,13.7,112.6,36.7L100.7,368.6C77.7,337,64,298.1,64,256z M256,448c-42.1,0-81-13.7-112.6-36.7l267.9-267.9
	c23,31.7,36.7,70.5,36.7,112.6C448,362.1,362,448,256,448z"></path>
  </symbol>
    <symbol fill="none" xmlns="http://www.w3.org/2000/svg" viewBox="0 0 18 18" id="error">
        <path d="M7.28618 12.3043L7.28629 12.3044L7.29532 12.2954L9 10.591L10.7008 12.2915C10.8032 12.3979 10.9256 12.4831 11.0609 12.5422C11.1985 12.6023 11.3468 12.6343 11.4969 12.6362C11.6471 12.6381 11.7961 12.61 11.9352 12.5534C12.0743 12.4968 12.2006 12.413 12.3068 12.3068C12.413 12.2006 12.4968 12.0743 12.5534 11.9352C12.61 11.7961 12.6381 11.6471 12.6362 11.4969C12.6343 11.3468 12.6023 11.1985 12.5422 11.0609C12.4831 10.9256 12.3979 10.8032 12.2915 10.7008L10.591 9L12.2954 7.29532L12.2955 7.29543L12.3043 7.28618C12.5064 7.07349 12.6173 6.79027 12.6136 6.49691C12.6098 6.20355 12.4916 5.92327 12.2842 5.71582C12.0767 5.50837 11.7964 5.39016 11.5031 5.38641C11.2097 5.38265 10.9265 5.49364 10.7138 5.69571L10.7137 5.6956L10.7047 5.70462L9 7.40898L7.29532 5.70462L7.29543 5.7045L7.28618 5.69571C7.07349 5.49364 6.79027 5.38265 6.49691 5.38641C6.20356 5.39016 5.92327 5.50837 5.71582 5.71582C5.50837 5.92327 5.39016 6.20356 5.38641 6.49691C5.38265 6.79027 5.49364 7.07349 5.69571 7.28618L5.6956 7.28629L5.70462 7.29532L7.40898 9L5.70462 10.7047L5.7045 10.7046L5.69571 10.7138C5.49364 10.9265 5.38265 11.2097 5.38641 11.5031C5.39016 11.7964 5.50837 12.0767 5.71582 12.2842C5.92327 12.4916 6.20355 12.6098 6.49691 12.6136C6.79027 12.6173 7.07349 12.5064 7.28618 12.3043ZM1.375 9C1.375 4.79606 4.79606 1.375 9 1.375C13.2039 1.375 16.625 4.79606 16.625 9C16.625 13.2039 13.2039 16.625 9 16.625C4.79606 16.625 1.375 13.2039 1.375 9Z" fill="#FF4040" stroke="black"></path>
    </symbol>
    <symbol xmlns="http://www.w3.org/2000/svg" viewBox="0 0 14 8" id="arrowDown">
        <path
                d="M12.625 1.1875L7 6.8125L1.375 1.1875" stroke-width="1.875" stroke-linecap="round" stroke-linejoin="round"></path>
    </symbol>
    <symbol xmlns="http://www.w3.org/2000/svg" viewBox="0 0 18 18" id="plus">
        <path d="M1 9H17M9 1V17" stroke="white" stroke-width="2" stroke-linecap="round" stroke-linejoin="round"></path>
    </symbol>
    <symbol fill="none" xmlns="http://www.w3.org/2000/svg" viewBox="0 0 22 25" id="delete">
        <path d="M8.5 12.25V18.5" stroke="#ffffff" stroke-width="2" stroke-linecap="round" stroke-linejoin="round"></path>
        <path d="M13.5 12.25V18.5" stroke="#ffffff" stroke-width="2" stroke-linecap="round" stroke-linejoin="round"></path>
        <path d="M1 6H21" stroke="#ffffff" stroke-width="2" stroke-linecap="round" stroke-linejoin="round"></path>
        <path d="M3.5 9.75V19.75C3.5 21.8211 5.17894 23.5 7.25 23.5H14.75C16.8211 23.5 18.5 21.8211 18.5 19.75V9.75" stroke="#ffffff" stroke-width="2" stroke-linecap="round" stroke-linejoin="round"></path>
        <path d="M7.25 3.5C7.25 2.11929 8.36929 1 9.75 1H12.25C13.6308 1 14.75 2.11929 14.75 3.5V6H7.25V3.5Z" stroke="#ffffff" stroke-width="2" stroke-linecap="round" stroke-linejoin="round"></path>
    </symbol>
</svg>