<svg width="0" height="0" class="hidden">
    <symbol xmlns="http://www.w3.org/2000/svg" viewBox="0 0 20 20" id="logOut">
        <path d="M6.52941 10C6.52941 9.83123 6.59758 9.66936 6.71893 9.55002C6.84028 9.43068 7.00486 9.36364 7.17647 9.36364H13V5.22727C13 3.95455 11.6335 3 10.4118 3H4.26471C3.66427 3.00063 3.0886 3.23549 2.66403 3.65305C2.23945 4.07061 2.00064 4.63676 2 5.22727V14.7727C2.00064 15.3632 2.23945 15.9294 2.66403 16.3469C3.0886 16.7645 3.66427 16.9994 4.26471 17H10.7353C11.3357 16.9994 11.9114 16.7645 12.336 16.3469C12.7605 15.9294 12.9994 15.3632 13 14.7727V10.6364H7.17647C7.00486 10.6364 6.84028 10.5693 6.71893 10.45C6.59758 10.3306 6.52941 10.1688 6.52941 10Z"
              fill="white"></path>
        <path d="M18.8049 9.0771L15.4714 6.16043C15.3453 6.05565 15.1775 5.9981 15.0036 6.00005C14.8298 6.002 14.6637 6.06329 14.5407 6.17085C14.4178 6.27842 14.3478 6.42375 14.3455 6.57587C14.3433 6.72798 14.4091 6.87483 14.5288 6.98512L16.7239 8.90611H13V10.0728H16.7239L14.5288 11.9938C14.4643 12.0474 14.4127 12.1118 14.3771 12.1831C14.3415 12.2545 14.3225 12.3313 14.3214 12.4092C14.3202 12.4871 14.3369 12.5643 14.3705 12.6364C14.404 12.7086 14.4537 12.7741 14.5166 12.8291C14.5795 12.8842 14.6544 12.9277 14.7368 12.957C14.8193 12.9864 14.9076 13.0009 14.9966 13C15.0856 12.999 15.1734 12.9824 15.2549 12.9512C15.3365 12.92 15.4101 12.8749 15.4714 12.8185L18.8049 9.90178C18.9298 9.7924 19 9.64408 19 9.48944C19 9.3348 18.9298 9.18648 18.8049 9.0771V9.0771Z"
              fill="white"></path>
    </symbol>
    <symbol xmlns="http://www.w3.org/2000/svg" viewBox="0 0 14 14" id="cross">
        <path d="M13 1L1 13M1 1L13 13" stroke-width="1.5" stroke-linecap="round"></path>
    </symbol>
    <symbol xmlns="http://www.w3.org/2000/svg" viewBox="0 0 14 14" id="plus">
        <path d="M7 1.375V12.625" stroke-width="1.25" stroke-linecap="round" stroke-linejoin="round"></path>
        <path d="M12.625 7H1.375" stroke-width="1.25" stroke-linecap="round" stroke-linejoin="round"></path>
    </symbol>
    <symbol id="empty" xmlns="http://www.w3.org/2000/svg"
            enable-background="new 0 0 512 512" xml:space="preserve" viewBox="0 0 512 512">
    <path d="M256,0C114.6,0,0,114.6,0,256s114.6,256,256,256s256-114.6,256-256S397.4,0,256,0z M64,256c0-106.1,86-192,192-192
	c42.1,0,81,13.7,112.6,36.7L100.7,368.6C77.7,337,64,298.1,64,256z M256,448c-42.1,0-81-13.7-112.6-36.7l267.9-267.9
	c23,31.7,36.7,70.5,36.7,112.6C448,362.1,362,448,256,448z"></path>
  </symbol>
    <symbol fill="none" xmlns="http://www.w3.org/2000/svg" viewBox="0 0 18 18" id="error">
        <path d="M7.28618 12.3043L7.28629 12.3044L7.29532 12.2954L9 10.591L10.7008 12.2915C10.8032 12.3979 10.9256 12.4831 11.0609 12.5422C11.1985 12.6023 11.3468 12.6343 11.4969 12.6362C11.6471 12.6381 11.7961 12.61 11.9352 12.5534C12.0743 12.4968 12.2006 12.413 12.3068 12.3068C12.413 12.2006 12.4968 12.0743 12.5534 11.9352C12.61 11.7961 12.6381 11.6471 12.6362 11.4969C12.6343 11.3468 12.6023 11.1985 12.5422 11.0609C12.4831 10.9256 12.3979 10.8032 12.2915 10.7008L10.591 9L12.2954 7.29532L12.2955 7.29543L12.3043 7.28618C12.5064 7.07349 12.6173 6.79027 12.6136 6.49691C12.6098 6.20355 12.4916 5.92327 12.2842 5.71582C12.0767 5.50837 11.7964 5.39016 11.5031 5.38641C11.2097 5.38265 10.9265 5.49364 10.7138 5.69571L10.7137 5.6956L10.7047 5.70462L9 7.40898L7.29532 5.70462L7.29543 5.7045L7.28618 5.69571C7.07349 5.49364 6.79027 5.38265 6.49691 5.38641C6.20356 5.39016 5.92327 5.50837 5.71582 5.71582C5.50837 5.92327 5.39016 6.20356 5.38641 6.49691C5.38265 6.79027 5.49364 7.07349 5.69571 7.28618L5.6956 7.28629L5.70462 7.29532L7.40898 9L5.70462 10.7047L5.7045 10.7046L5.69571 10.7138C5.49364 10.9265 5.38265 11.2097 5.38641 11.5031C5.39016 11.7964 5.50837 12.0767 5.71582 12.2842C5.92327 12.4916 6.20355 12.6098 6.49691 12.6136C6.79027 12.6173 7.07349 12.5064 7.28618 12.3043ZM1.375 9C1.375 4.79606 4.79606 1.375 9 1.375C13.2039 1.375 16.625 4.79606 16.625 9C16.625 13.2039 13.2039 16.625 9 16.625C4.79606 16.625 1.375 13.2039 1.375 9Z"
              fill="#FF4040" stroke="black"></path>
    </symbol>
    <symbol xmlns="http://www.w3.org/2000/svg" viewBox="0 0 14 8" id="arrowDown">
        <path
                d="M12.625 1.1875L7 6.8125L1.375 1.1875" stroke-width="1.875" stroke-linecap="round"
                stroke-linejoin="round"></path>
    </symbol>
    <symbol xmlns="http://www.w3.org/2000/svg" viewBox="0 0 18 18" id="plus">
        <path d="M1 9H17M9 1V17" stroke="white" stroke-width="2" stroke-linecap="round" stroke-linejoin="round"></path>
    </symbol>
    <symbol fill="none" xmlns="http://www.w3.org/2000/svg" viewBox="0 0 22 25" id="delete">
        <path d="M8.5 12.25V18.5" stroke="#ffffff" stroke-width="2" stroke-linecap="round"
              stroke-linejoin="round"></path>
        <path d="M13.5 12.25V18.5" stroke="#ffffff" stroke-width="2" stroke-linecap="round"
              stroke-linejoin="round"></path>
        <path d="M1 6H21" stroke="#ffffff" stroke-width="2" stroke-linecap="round" stroke-linejoin="round"></path>
        <path d="M3.5 9.75V19.75C3.5 21.8211 5.17894 23.5 7.25 23.5H14.75C16.8211 23.5 18.5 21.8211 18.5 19.75V9.75"
              stroke="#ffffff" stroke-width="2" stroke-linecap="round" stroke-linejoin="round"></path>
        <path d="M7.25 3.5C7.25 2.11929 8.36929 1 9.75 1H12.25C13.6308 1 14.75 2.11929 14.75 3.5V6H7.25V3.5Z"
              stroke="#ffffff" stroke-width="2" stroke-linecap="round" stroke-linejoin="round"></path>
    </symbol>
    <symbol fill="none" xmlns="http://www.w3.org/2000/svg" viewBox="0 0 28 32" id="users">
        <path d="M24.5625 28.5L27 31M1 31C1 24.5567 6.09277 19.3333 12.375 19.3333M25.375 25.1667C25.375 27.4678 23.5561 29.3333 21.3125 29.3333C19.0689 29.3333 17.25 27.4678 17.25 25.1667C17.25 22.8655 19.0689 21 21.3125 21C23.5561 21 25.375 22.8655 25.375 25.1667ZM18.875 7.66667C18.875 11.3486 15.9648 14.3333 12.375 14.3333C8.78515 14.3333 5.875 11.3486 5.875 7.66667C5.875 3.98477 8.78515 1 12.375 1C15.9648 1 18.875 3.98477 18.875 7.66667Z"
              stroke="white" stroke-width="2" stroke-linecap="round" stroke-linejoin="round"></path>
    </symbol>
    <symbol xmlns="http://www.w3.org/2000/svg" viewBox="0 0 30 26" id="tenant">
        <path fill-rule="evenodd" clip-rule="evenodd"
              d="M0.0522772 15.6043V24.9167C0.0522772 25.5147 0.554496 26 1.1733 26H3.58574C3.85122 26.0001 4.10811 25.9091 4.31066 25.7432C4.51321 25.5774 4.64828 25.3474 4.69182 25.0943L5.28372 21.6667H24.7148L25.3052 25.0943C25.3487 25.3474 25.4838 25.5774 25.6863 25.7432C25.8889 25.9091 26.1458 26.0001 26.4113 26H28.8252C29.1225 26 29.4077 25.8859 29.6179 25.6827C29.8281 25.4795 29.9462 25.204 29.9462 24.9167V15.6043C29.9463 13.9063 29.4262 12.2462 28.4515 10.8333L27.2857 9.14333C27.1817 8.99287 27.0926 8.83328 27.0196 8.66667H28.5053C28.7136 8.66666 28.9178 8.61057 29.095 8.50469C29.2721 8.39881 29.4152 8.24732 29.5083 8.06722L29.882 7.345C29.9672 7.17995 30.0075 6.99658 29.9989 6.81229C29.9903 6.628 29.9331 6.44888 29.8328 6.29192C29.7325 6.13495 29.5924 6.00534 29.4257 5.91536C29.2591 5.82539 29.0714 5.77803 28.8805 5.77778H26.359L25.8956 3.54467C25.7546 2.86456 25.414 2.23807 24.9143 1.74011C24.4147 1.24215 23.7772 0.893787 23.0781 0.736667C20.8928 0.245556 18.1994 0 14.9993 0C11.7976 0 9.10566 0.245556 6.92041 0.736667C6.22104 0.893542 5.58325 1.2418 5.08332 1.73978C4.58339 2.23776 4.24249 2.86437 4.10141 3.54467L3.63806 5.77778H1.11949C0.928593 5.77803 0.740924 5.82539 0.574271 5.91536C0.407617 6.00534 0.267501 6.13495 0.167201 6.29192C0.0669016 6.44888 0.0097417 6.628 0.00113902 6.81229C-0.00746365 6.99658 0.0327758 7.17995 0.118044 7.345L0.491718 8.06722C0.584644 8.2471 0.727534 8.39844 0.904398 8.50431C1.08126 8.61018 1.28512 8.66639 1.49317 8.66667H2.98039C2.90735 8.83326 2.81828 8.99285 2.71433 9.14333L1.54697 10.8333C0.572432 12.246 0.0522772 13.9057 0.0522772 15.6043ZM23.9091 8.67244C24.0121 9.17203 24.183 9.65627 24.4173 10.1126H5.58116C5.81583 9.65756 5.98623 9.17367 6.08936 8.67244L7.03401 4.11233C7.06189 3.97599 7.12989 3.85033 7.22984 3.7504C7.32979 3.65048 7.45745 3.58055 7.59751 3.549C9.53763 3.11567 12.0099 2.88889 14.9993 2.88889C17.9886 2.88889 20.4609 3.11422 22.401 3.55044C22.5411 3.58164 22.669 3.65125 22.7692 3.75092C22.8694 3.85058 22.9377 3.97607 22.966 4.11233L23.9091 8.67244ZM5.28372 17.3333C5.87835 17.3333 6.44862 17.1051 6.86908 16.6987C7.28955 16.2924 7.52576 15.7413 7.52576 15.1667C7.52576 14.592 7.28955 14.0409 6.86908 13.6346C6.44862 13.2283 5.87835 13 5.28372 13C4.68909 13 4.11882 13.2283 3.69835 13.6346C3.27789 14.0409 3.04167 14.592 3.04167 15.1667C3.04167 15.7413 3.27789 16.2924 3.69835 16.6987C4.11882 17.1051 4.68909 17.3333 5.28372 17.3333ZM26.9568 15.1667C26.9568 15.7413 26.7206 16.2924 26.3001 16.6987C25.8797 17.1051 25.3094 17.3333 24.7148 17.3333C24.1202 17.3333 23.5499 17.1051 23.1294 16.6987C22.709 16.2924 22.4727 15.7413 22.4727 15.1667C22.4727 14.592 22.709 14.0409 23.1294 13.6346C23.5499 13.2283 24.1202 13 24.7148 13C25.3094 13 25.8797 13.2283 26.3001 13.6346C26.7206 14.0409 26.9568 14.592 26.9568 15.1667Z"></path>
    </symbol>
    <symbol fill="none" xmlns="http://www.w3.org/2000/svg" viewBox="0 0 34 34" id="settings">
        <path fill-rule="evenodd" clip-rule="evenodd"
              d="M15.5 32C14.7145 32 14.0444 31.4315 13.9165 30.6564C13.7987 30.0294 13.3473 29.5171 12.74 29.3214C12.2452 29.1515 11.7614 28.9511 11.2914 28.7214C10.7322 28.4354 10.0613 28.4782 9.54288 28.8329C8.91551 29.2839 8.05369 29.2141 7.50716 28.6679L5.38145 26.5421C4.80936 25.97 4.73503 25.0681 5.20573 24.41C5.56875 23.8796 5.62103 23.1959 5.34288 22.6164C5.1596 22.214 4.99793 21.8019 4.85859 21.3821C4.65901 20.7206 4.10813 20.2252 3.4293 20.0964C2.6107 19.9657 2.00637 19.2626 2.00002 18.4336V15.7743C1.99567 14.8188 2.68582 14.0015 3.62859 13.8457C4.3438 13.7096 4.94101 13.2198 5.21431 12.545C5.29574 12.355 5.38145 12.1664 5.47145 11.9793C5.83492 11.2795 5.78472 10.4367 5.34072 9.785C4.78549 9.01331 4.87075 7.95305 5.54215 7.28L7.10431 5.71786C7.87477 4.94711 9.08989 4.84736 9.97573 5.48214L10.025 5.51643C10.6865 5.96163 11.5282 6.04226 12.2622 5.73071C13.0474 5.44809 13.6262 4.77337 13.7857 3.95429L13.8073 3.88143C13.9835 2.79708 14.92 2.00045 16.0187 2H17.9044C19.0325 1.99949 19.9954 2.81551 20.18 3.92857L20.2143 4.07857C20.3657 4.86322 20.9145 5.51261 21.6629 5.79286C22.3842 6.10244 23.2136 6.02159 23.8615 5.57857L23.9686 5.50143C24.8774 4.84644 26.127 4.94718 26.9193 5.73929L28.3571 7.17929C29.0778 7.90391 29.1684 9.04342 28.5714 9.87286C28.1037 10.5661 28.0442 11.457 28.4149 12.2064L28.5073 12.4207C28.8075 13.1525 29.4574 13.6829 30.2343 13.8307C31.2499 13.9964 31.9967 14.8719 32 15.9007V18.2857C31.9998 19.193 31.3435 19.967 30.4486 20.1157C29.7125 20.2569 29.113 20.7899 28.8864 21.5043C28.7864 21.7899 28.6749 22.0758 28.5521 22.3614C28.2662 22.9893 28.3297 23.7209 28.7193 24.29C29.2334 25.0053 29.1536 25.9878 28.5308 26.6107L26.5358 28.6079C25.9653 29.1783 25.0655 29.2518 24.4101 28.7814C23.8629 28.4075 23.1541 28.3664 22.5673 28.6743C22.149 28.8815 21.7198 29.0654 21.2815 29.225C20.6686 29.4365 20.2167 29.9611 20.0987 30.5986C19.9736 31.4006 19.2859 31.994 18.4743 32H15.5Z"
              stroke-width="2.5" stroke-linecap="round" stroke-linejoin="round" stroke="white"></path>
        <path fill-rule="evenodd" clip-rule="evenodd"
              d="M21.9993 17.3848C21.9993 20.2167 19.7611 22.5123 17 22.5123C14.2389 22.5123 12.0007 20.2167 12.0007 17.3848C12.0007 14.553 14.2389 12.2573 17 12.2573C19.7611 12.2573 21.9993 14.553 21.9993 17.3848Z"
              stroke-width="2.5" stroke-linecap="round" stroke-linejoin="round" stroke="white"></path>
    </symbol>
    <symbol fill="none" xmlns="http://www.w3.org/2000/svg" viewBox="0 0 28 32" id="roles">
        <path d="M12.375 31H1C1 25.1225 5.23753 20.2602 10.75 19.4515M26.793 21.3397C26.6822 21.3465 26.5705 21.35 26.4584 21.35C24.7936 21.35 23.275 20.5873 22.125 19.3333C20.975 20.5873 19.4564 21.3498 17.7916 21.3498C17.6795 21.3498 17.5679 21.3463 17.457 21.3395C17.3218 21.9755 17.25 22.6425 17.25 23.3298C17.25 27.0202 19.3215 30.1208 22.125 31C24.9285 30.1208 27 27.0202 27 23.3298C27 22.6425 26.9282 21.9755 26.793 21.3397ZM18.875 7.66667C18.875 11.3486 15.9648 14.3333 12.375 14.3333C8.78515 14.3333 5.875 11.3486 5.875 7.66667C5.875 3.98477 8.78515 1 12.375 1C15.9648 1 18.875 3.98477 18.875 7.66667Z"
              stroke-width="2" stroke-linecap="round" stroke-linejoin="round"></path>
    </symbol>
    <symbol xmlns="http://www.w3.org/2000/svg" viewBox="0 0 25 30" id="report">
        <path d="M0 8.75H5V30H0V8.75ZM20 15V30H25V15H20ZM10 30H15V0H10V30Z"></path>
    </symbol>
    <symbol xmlns="http://www.w3.org/2000/svg" viewBox="0 0 30 30" id="parking">
        <path fill-rule="evenodd" clip-rule="evenodd"
              d="M13.6363 6.81836C11.377 6.81836 9.54541 8.64993 9.54541 10.9093V21.8184C9.54541 22.5715 10.1559 23.182 10.909 23.182C11.6622 23.182 12.2727 22.5715 12.2727 21.8184V17.7275H15.0061C15.293 17.7257 15.5809 17.692 15.8634 17.6449C16.3362 17.5661 16.9875 17.4059 17.6552 17.0721C18.3285 16.7354 19.043 16.2092 19.5863 15.3943C20.1353 14.5708 20.4545 13.5341 20.4545 12.2729C20.4545 11.0115 20.1353 9.97488 19.5863 9.15143C19.043 8.33652 18.3283 7.81027 17.6552 7.4737C16.9875 7.13981 16.3362 6.97965 15.8634 6.90085C15.5792 6.85347 15.2886 6.8185 15 6.81836H13.6363ZM12.2727 15.0002V10.9093C12.2727 10.1562 12.8832 9.54563 13.6363 9.54563L15.0005 9.54588C15.4913 9.56224 15.9979 9.69417 16.4356 9.91305C16.7852 10.0878 17.0933 10.3286 17.317 10.6643C17.5351 10.9914 17.7272 11.4888 17.7272 12.2729C17.7272 13.057 17.5351 13.5543 17.317 13.8815C17.0933 14.2172 16.7851 14.4579 16.4356 14.6327C15.9979 14.8515 15.4913 14.9835 15.0004 14.9999L12.2727 15.0002Z"></path>
        <path fill-rule="evenodd" clip-rule="evenodd"
              d="M25.9091 0C28.1685 0 30 1.83157 30 4.09091V25.9091C30 28.1685 28.1685 30 25.9091 30H4.09091C1.83157 30 0 28.1685 0 25.9091V4.09091C0 1.83157 1.83157 0 4.09091 0H25.9091ZM25.9091 2.72727C26.6622 2.72727 27.2727 3.3378 27.2727 4.09091V25.9091C27.2727 26.6622 26.6622 27.2727 25.9091 27.2727H4.09091C3.3378 27.2727 2.72727 26.6622 2.72727 25.9091V4.09091C2.72727 3.3378 3.3378 2.72727 4.09091 2.72727H25.9091Z"></path>
    </symbol>
    <symbol xmlns="http://www.w3.org/2000/svg" viewBox="0 0 30 30" id="history">
        <path fill-rule="evenodd" clip-rule="evenodd"
              d="M4.35182 4.33679C10.1908 -1.49395 19.6826 -1.43195 25.5572 4.44274C31.4345 10.32 31.494 19.8174 25.6557 25.6557C19.8172 31.494 10.3199 31.4345 4.44268 25.5572C0.95983 22.0745 -0.478401 17.3229 0.139184 12.8172C0.225722 12.1859 0.807692 11.7443 1.43903 11.8308C2.07038 11.9173 2.51203 12.4992 2.42551 13.1306C1.90246 16.9465 3.11972 20.9708 6.07446 23.9255C11.066 28.9171 19.1022 28.9455 24.0239 24.0239C28.9455 19.1022 28.9169 11.066 23.9254 6.07453C18.9365 1.08556 10.906 1.05445 5.98362 5.96857L7.13393 5.97436C7.77117 5.97756 8.28516 6.49674 8.28196 7.13399C8.27876 7.77123 7.75957 8.28522 7.12232 8.28202L3.20609 8.26234C2.57337 8.25916 2.06125 7.74702 2.05806 7.11431L2.03838 3.19806C2.03517 2.56083 2.54917 2.04165 3.18642 2.03843C3.82366 2.03523 4.34285 2.54923 4.34605 3.18648L4.35182 4.33679ZM14.9999 7.69219C15.6371 7.69219 16.1537 8.20879 16.1537 8.84604V14.522L19.6619 18.0302C20.1125 18.4808 20.1125 19.2114 19.6619 19.6619C19.2112 20.1125 18.4806 20.1125 18.0302 19.6619L13.846 15.4779V8.84604C13.846 8.20879 14.3626 7.69219 14.9999 7.69219Z"></path>
    </symbol>
    <symbol fill="none" xmlns="http://www.w3.org/2000/svg" viewBox="0 0 25 32" id="employee">
        <path d="M1 31C1 24.5567 6.14873 19.3333 12.5 19.3333C18.8513 19.3333 24 24.5567 24 31M19.0714 7.66667C19.0714 11.3486 16.1292 14.3333 12.5 14.3333C8.8707 14.3333 5.92857 11.3486 5.92857 7.66667C5.92857 3.98477 8.8707 1 12.5 1C16.1292 1 19.0714 3.98477 19.0714 7.66667Z"
              stroke-width="2" stroke-linecap="round" stroke-linejoin="round"></path>
    </symbol>
    <symbol fill="none" xmlns="http://www.w3.org/2000/svg" viewBox="0 0 26 23" id="burger">
        <path fill-rule="evenodd" clip-rule="evenodd"
              d="M0 1.95087C0 1.07191 0.715979 0.359375 1.59919 0.359375H23.9877C24.871 0.359375 25.5869 1.07191 25.5869 1.95087C25.5869 2.82983 24.871 3.54237 23.9877 3.54237H1.59919C0.715979 3.54237 0 2.82983 0 1.95087ZM0 11.4999C0 10.6209 0.715979 9.9084 1.59919 9.9084H23.9877C24.871 9.9084 25.5869 10.6209 25.5869 11.4999C25.5869 12.3789 24.871 13.0914 23.9877 13.0914H1.59919C0.715979 13.0914 0 12.3789 0 11.4999ZM19.1902 21.0487C19.1902 20.1698 18.4743 19.4573 17.591 19.4573H1.59919C0.715979 19.4573 0 20.1698 0 21.0487C0 21.9278 0.715981 22.6403 1.59919 22.6403H17.591C18.4743 22.6403 19.1902 21.9278 19.1902 21.0487Z"
              fill="white"></path>
    </symbol>
    <symbol fill="none" xmlns="http://www.w3.org/2000/svg" viewBox="0 0 16 14" id="back">
        <path d="M1.39238 6.30029H15.3043C15.4888 6.30029 15.6657 6.37403 15.7962 6.50529C15.9266 6.63655 15.9999 6.81458 15.9999 7.0002C15.9999 7.18583 15.9266 7.36386 15.7962 7.49512C15.6657 7.62638 15.4888 7.70012 15.3043 7.70012H1.39238C1.20789 7.70012 1.03096 7.62638 0.900513 7.49512C0.770063 7.36386 0.696777 7.18583 0.696777 7.0002C0.696777 6.81458 0.770063 6.63655 0.900513 6.50529C1.03096 6.37403 1.20789 6.30029 1.39238 6.30029Z"
              fill="#5871F2"></path>
        <path d="M1.68042 7L7.4497 12.8037C7.58032 12.9351 7.6537 13.1133 7.6537 13.2992C7.6537 13.4851 7.58032 13.6633 7.4497 13.7947C7.31909 13.9262 7.14194 14 6.95722 14C6.7725 14 6.59535 13.9262 6.46474 13.7947L0.204358 7.49554C0.139579 7.43052 0.0881848 7.35329 0.0531177 7.26825C0.0180506 7.18322 0 7.09206 0 7C0 6.90794 0.0180506 6.81678 0.0531177 6.73175C0.0881848 6.64672 0.139579 6.56948 0.204358 6.50446L6.46474 0.205258C6.59535 0.0738335 6.7725 0 6.95722 0C7.14194 0 7.31909 0.0738335 7.4497 0.205258C7.58032 0.336683 7.6537 0.514933 7.6537 0.700796C7.6537 0.886658 7.58032 1.06491 7.4497 1.19633L1.68042 7Z"
              fill="#5871F2"></path>
    </symbol>
    <symbol fill="none" xmlns="http://www.w3.org/2000/svg" viewBox="0 0 14 12" id="sort">
        <path d="M5.59618 8.87949C5.79602 8.6237 5.74386 8.25952 5.47954 8.06613C5.21522 7.87274 4.83893 7.92321 4.63905 8.17901L5.59618 8.87949ZM2.38066 11.0691C2.18079 11.3248 2.23302 11.689 2.49732 11.8824C2.76163 12.0759 3.13791 12.0253 3.33779 11.7695L2.38066 11.0691ZM2.25923 11.4193C2.25923 11.74 2.52786 11.9999 2.85923 11.9999C3.19059 11.9999 3.45923 11.74 3.45923 11.4193H2.25923ZM3.45923 0.580642C3.45923 0.259965 3.19059 0 2.85923 0C2.52786 0 2.25923 0.259965 2.25923 0.580642H3.45923ZM2.38072 11.7696C2.58064 12.0253 2.95694 12.0758 3.22121 11.8823C3.48548 11.6889 3.53765 11.3248 3.33773 11.069L2.38072 11.7696ZM1.07853 8.17893C0.878615 7.92321 0.50232 7.87274 0.238049 8.06621C-0.0262225 8.25968 -0.0783905 8.62378 0.121529 8.87957L1.07853 8.17893ZM5.87042 0C5.53906 0 5.27042 0.259965 5.27042 0.580642C5.27042 0.90132 5.53906 1.16128 5.87042 1.16128V0ZM13.4 1.16128C13.7314 1.16128 14 0.90132 14 0.580642C14 0.259965 13.7314 0 13.4 0V1.16128ZM5.87042 2.16773C5.53906 2.16773 5.27042 2.4277 5.27042 2.74837C5.27042 3.06905 5.53906 3.32902 5.87042 3.32902V2.16773ZM11.8936 3.32902C12.225 3.32902 12.4936 3.06905 12.4936 2.74837C12.4936 2.4277 12.225 2.16773 11.8936 2.16773V3.32902ZM5.87042 4.33546C5.53906 4.33546 5.27042 4.59544 5.27042 4.91611C5.27042 5.23677 5.53906 5.49675 5.87042 5.49675V4.33546ZM10.388 5.49675C10.7194 5.49675 10.988 5.23677 10.988 4.91611C10.988 4.59544 10.7194 4.33546 10.388 4.33546V5.49675ZM4.63905 8.17901L2.38066 11.0691L3.33779 11.7695L5.59618 8.87949L4.63905 8.17901ZM3.45923 11.4193V0.580642H2.25923V11.4193H3.45923ZM3.33773 11.069L1.07853 8.17893L0.121529 8.87957L2.38072 11.7696L3.33773 11.069ZM5.87042 1.16128H13.4V0H5.87042V1.16128ZM5.87042 3.32902H11.8936V2.16773H5.87042V3.32902ZM5.87042 5.49675H10.388V4.33546H5.87042V5.49675Z"
              fill="#8F9CCB"></path>
    </symbol>
    <symbol fill="none" xmlns="http://www.w3.org/2000/svg" viewBox="0 0 28 28" id="download">
        <path d="M14.7948 20.4703C14.5907 20.6934 14.3024 20.8205 14 20.8205C13.6976 20.8205 13.4093 20.6934 13.2052 20.4703L7.46161 14.1882C7.06027 13.7493 7.09077 13.0681 7.52973 12.6668C7.96869 12.2654 8.64987 12.2959 9.0512 12.7348L12.9231 16.9697V1.07692C12.9231 0.48216 13.4052 0 14 0C14.5947 0 15.0769 0.48216 15.0769 1.07692V16.9697L18.9488 12.7348C19.3501 12.2959 20.0313 12.2654 20.4703 12.6668C20.9092 13.0681 20.9397 13.7493 20.5384 14.1882L14.7948 20.4703Z"
              fill="white"></path>
        <path d="M2.15385 18.3079C2.15385 17.7131 1.6717 17.231 1.07692 17.231C0.482161 17.231 7.52343e-07 17.7131 7.52343e-07 18.3079V18.3867C-2.79656e-05 20.3504 -5.67864e-05 21.9332 0.167311 23.1782C0.341084 24.4706 0.712823 25.5587 1.57712 26.423C2.44141 27.2874 3.52964 27.6592 4.8221 27.8329C6.06698 28.0002 7.6498 28.0002 9.61352 28.0002H18.3865C20.3503 28.0002 21.933 28.0002 23.178 27.8329C24.4704 27.6592 25.5585 27.2874 26.423 26.423C27.2872 25.5587 27.659 24.4706 27.8327 23.1782C28 21.9332 28 20.3504 28 18.3867V18.3079C28 17.7131 27.5178 17.231 26.9231 17.231C26.3283 17.231 25.8462 17.7131 25.8462 18.3079C25.8462 20.369 25.8439 21.8064 25.6981 22.8911C25.5564 23.9448 25.2974 24.5026 24.8999 24.9001C24.5024 25.2975 23.9446 25.5566 22.8909 25.6983C21.8063 25.844 20.3688 25.8463 18.3077 25.8463H9.69231C7.63121 25.8463 6.1937 25.844 5.1091 25.6983C4.05548 25.5566 3.49752 25.2975 3.10012 24.9001C2.70272 24.5026 2.44361 23.9448 2.30196 22.8911C2.15613 21.8064 2.15385 20.369 2.15385 18.3079Z"
              fill="white"></path>
    </symbol>
    <symbol fill="none" xmlns="http://www.w3.org/2000/svg" viewBox="0 0 30 30" id="refresh">
        <path d="M8 2.75C3.77577 5.16027 1 9.7884 1 15C1 22.732 7.26801 29 15 29C22.732 29 29 22.732 29 15C29 7.26801 22.732 1 15 1"
              stroke="white" stroke-width="2" stroke-linecap="round" stroke-linejoin="round"></path>
        <path d="M8 9.75V2.75H1" stroke="white" stroke-width="2" stroke-linecap="round" stroke-linejoin="round"></path>
    </symbol>
    <symbol fill="none" xmlns="http://www.w3.org/2000/svg" viewBox="0 0 18 22" id="file">
        <path d="M10.1429 0.999999L4.65714 0.999999C3.37703 0.999999 2.73691 0.999999 2.248 1.24222C1.81794 1.45522 1.46823 1.79522 1.24914 2.21333C1 2.68866 0.999999 3.311 0.999999 4.55556L0.999999 17.4444C0.999999 18.689 1 19.3113 1.24914 19.7866C1.46823 20.2048 1.81794 20.5447 2.248 20.7578C2.73691 21 3.37703 21 4.65714 21L13.3429 21C14.623 21 15.263 21 15.752 20.7578C16.1821 20.5447 16.5317 20.2048 16.7509 19.7866C17 19.3113 17 18.689 17 17.4444L17 7.66667M10.1429 0.999999L17 7.66667M10.1429 0.999999L10.1429 5.88889C10.1429 6.51122 10.1429 6.82233 10.2674 7.06C10.377 7.26911 10.5518 7.439 10.7669 7.54555C11.0113 7.66667 11.3314 7.66667 11.9714 7.66667L17 7.66667"
              stroke="white" stroke-width="2" stroke-linecap="round" stroke-linejoin="round"></path>
    </symbol>
    <symbol fill="none" xmlns="http://www.w3.org/2000/svg" viewBox="0 0 32 32" id="html">
        <path d="M6 28L4 3H28L26 28L16 31L6 28Z" fill="#E44D26"></path>
        <path d="M26 5H16V29.5L24 27L26 5Z" fill="#F16529"></path>
        <path d="M9.5 17.5L8.5 8H24L23.5 11H11.5L12 14.5H23L22 24L16 26L10 24L9.5 19H12.5L13 21.5L16 22.5L19 21.5L19.5 17.5H9.5Z"
              fill="white"></path>
    </symbol>
    <symbol xmlns="http://www.w3.org/2000/svg" viewBox="-4 0 64 64" id="txt">
        <path d="M5.151-.036c-2.803 0-5.074 2.272-5.074 5.074v53.841c0 2.803 2.271 5.074 5.074 5.074h45.774c2.801 0 5.074-2.271 5.074-5.074v-38.605l-18.902-20.31h-31.946z"
              fill-rule="evenodd" clip-rule="evenodd" fill="#F9CA06"></path>
        <g fill-rule="evenodd" clip-rule="evenodd">
            <path d="M56.008 20.316v1h-12.799s-6.312-1.26-6.129-6.708c0 0 .208 5.708 6.004 5.708h12.924z"
                  fill="#F7BC04"></path>
            <path d="M37.106-.036v14.561c0 1.656 1.104 5.792 6.104 5.792h12.799l-18.903-20.353z" opacity=".5"
                  fill="#ffffff"></path>
        </g>
        <path d="M18.763 43.045h-3.277v10.047c0 .414-.324.738-.756.738-.414 0-.738-.324-.738-.738v-10.047h-3.259c-.36 0-.648-.288-.648-.684 0-.36.288-.648.648-.648h8.03c.36 0 .648.288.648.685 0 .359-.288.647-.648.647zm11.7 10.803c-.216 0-.415-.089-.541-.27l-3.727-4.97-3.745 4.97c-.126.181-.324.27-.54.27-.396 0-.72-.306-.72-.72 0-.144.036-.306.144-.432l3.889-5.131-3.619-4.826c-.09-.126-.144-.27-.144-.414 0-.343.288-.721.72-.721.216 0 .432.108.576.288l3.439 4.627 3.439-4.646c.126-.18.324-.27.541-.27.378 0 .738.306.738.721 0 .144-.036.288-.126.414l-3.619 4.808 3.89 5.149c.09.126.126.27.126.415 0 .396-.325.738-.721.738zm11.195-10.803h-3.277v10.047c0 .414-.323.738-.756.738-.414 0-.738-.324-.738-.738v-10.047h-3.259c-.36 0-.648-.288-.648-.684 0-.36.288-.648.648-.648h8.03c.36 0 .648.288.648.685.001.359-.287.647-.648.647z"
              fill="#ffffff"></path>
    </symbol>
    <symbol fill="none" xmlns="http://www.w3.org/2000/svg" viewBox="0 0 800 800" id="json">
        <path d="M464.207 634.317C461.007 630.041 457.352 626.966 453.269 625.076C449.186 623.186 444.883 622.248 440.345 622.248C435.696 622.248 431.269 623.117 427.048 624.883C422.828 626.648 419.062 629.628 415.738 633.834C412.414 638.041 409.793 643.476 407.917 650.152C406.028 656.814 405.021 664.979 404.896 674.662C405.021 684.097 406 692.138 407.821 698.8C409.641 705.462 412.152 710.897 415.365 715.117C418.579 719.338 422.221 722.4 426.303 724.359C430.386 726.317 434.69 727.283 439.228 727.283C443.876 727.283 448.303 726.372 452.524 724.552C456.745 722.731 460.51 719.738 463.834 715.6C467.159 711.462 469.779 706.014 471.655 699.283C473.531 692.552 474.552 684.359 474.676 674.676C474.552 665.241 473.572 657.228 471.752 650.635C469.931 644.041 467.421 638.593 464.207 634.317Z" fill="#8F9CCB"></path>
        <path d="M710.345 537.931V192.8C710.345 182.234 709.076 174.414 702.759 168.083L542.248 7.58621C537.435 2.77241 530.759 0 523.931 0H123.628C107.269 0 89.6553 12.6345 89.6553 40.3586V537.931H710.345ZM406.897 455.172C406.897 462.786 400.731 468.966 393.104 468.966C385.476 468.966 379.31 462.786 379.31 455.172V413.793C379.31 406.179 385.476 400 393.104 400C400.731 400 406.897 406.179 406.897 413.793V455.172ZM517.241 46.7724C517.241 40.4552 524.869 37.2966 529.338 41.7655L668.579 181.007C673.048 185.476 669.89 193.103 663.573 193.103H517.241V46.7724ZM503.448 331.034V275.862C503.448 268.262 497.269 262.069 489.655 262.069C482.028 262.069 475.862 255.89 475.862 248.276C475.862 240.662 482.028 234.483 489.655 234.483C512.469 234.483 531.035 253.048 531.035 275.862V331.034C531.035 346.248 543.407 358.621 558.621 358.621C566.248 358.621 572.414 364.8 572.414 372.414C572.414 380.028 566.248 386.207 558.621 386.207C543.407 386.207 531.035 398.579 531.035 413.793V468.966C531.035 491.779 512.469 510.345 489.655 510.345C482.028 510.345 475.862 504.166 475.862 496.552C475.862 488.938 482.028 482.759 489.655 482.759C497.269 482.759 503.448 476.566 503.448 468.966V413.793C503.448 397.241 510.924 382.538 522.51 372.414C510.924 362.29 503.448 347.586 503.448 331.034ZM393.104 303.448C404.524 303.448 413.793 312.717 413.793 324.138C413.793 335.559 404.524 344.828 393.104 344.828C381.683 344.828 372.414 335.559 372.414 324.138C372.414 312.717 381.683 303.448 393.104 303.448ZM227.586 358.621C242.8 358.621 255.173 346.248 255.173 331.034V275.862C255.173 253.048 273.738 234.483 296.552 234.483C304.179 234.483 310.345 240.662 310.345 248.276C310.345 255.89 304.179 262.069 296.552 262.069C288.938 262.069 282.759 268.262 282.759 275.862V331.034C282.759 347.586 275.283 362.29 263.697 372.414C275.283 382.538 282.759 397.241 282.759 413.793V468.966C282.759 476.566 288.938 482.759 296.552 482.759C304.179 482.759 310.345 488.938 310.345 496.552C310.345 504.166 304.179 510.345 296.552 510.345C273.738 510.345 255.173 491.779 255.173 468.966V413.793C255.173 398.579 242.8 386.207 227.586 386.207C219.959 386.207 213.793 380.028 213.793 372.414C213.793 364.8 219.959 358.621 227.586 358.621Z" fill="#8F9CCB"></path>
        <path d="M89.6553 565.517V772.414C89.6553 786.331 106.483 800 123.628 800H676.372C693.517 800 710.345 786.331 710.345 772.414V565.517H89.6553ZM248.566 711.255C248.566 717.793 247.366 723.296 244.979 727.752C242.593 732.207 239.393 735.793 235.366 738.496C231.338 741.2 226.717 743.09 221.504 744.152C216.29 745.214 210.91 745.752 205.379 745.752C202.621 745.752 199.366 745.462 195.669 744.896C191.973 744.331 188.124 743.462 184.166 742.262C180.207 741.062 176.4 739.71 172.759 738.207C169.117 736.703 166.041 735.007 163.517 733.117L173.131 717.848C174.386 718.717 176.179 719.641 178.51 720.579C180.841 721.517 183.393 722.4 186.152 723.214C188.91 724.027 191.807 724.745 194.828 725.379C197.848 726.014 200.676 726.317 203.31 726.317C209.973 726.317 215.283 725.021 219.241 722.455C223.2 719.889 225.297 715.503 225.559 709.352V602.993H248.566V711.255ZM358.041 721.352C355.973 726.069 353.048 730.221 349.269 733.793C345.49 737.365 340.855 740.234 335.31 742.372C329.766 744.51 323.504 745.572 316.455 745.572C313.435 745.572 310.331 745.407 307.117 745.103C303.904 744.8 300.676 744.248 297.407 743.503C294.138 742.745 291.021 741.71 288.069 740.386C285.117 739.062 282.579 737.462 280.428 735.572L284.386 719.352C286.152 720.358 288.373 721.338 291.076 722.276C293.779 723.214 296.566 724.096 299.462 724.91C302.359 725.724 305.241 726.386 308.138 726.896C311.035 727.407 313.724 727.655 316.248 727.655C323.917 727.655 329.793 725.862 333.876 722.276C337.959 718.69 340 713.379 340 706.345C340 702.069 338.566 698.427 335.669 695.407C332.773 692.386 329.159 689.655 324.828 687.2C320.497 684.745 315.807 682.303 310.773 679.848C305.738 677.393 301.035 674.496 296.635 671.172C292.235 667.848 288.593 663.917 285.697 659.393C282.8 654.869 281.366 649.214 281.366 642.427C281.366 636.276 282.497 630.8 284.759 626.027C287.021 621.255 290.069 617.186 293.904 613.862C297.738 610.538 302.207 607.986 307.297 606.221C312.386 604.455 317.766 603.586 323.421 603.586C329.2 603.586 335.048 604.124 340.952 605.186C346.855 606.248 351.628 607.986 355.283 610.372C354.524 612 353.655 613.793 352.648 615.752C351.641 617.71 350.69 619.517 349.821 621.214C348.952 622.91 348.193 624.331 347.559 625.462C346.924 626.593 346.552 627.227 346.428 627.352C345.669 626.979 344.828 626.483 343.876 625.848C342.924 625.214 341.586 624.593 339.821 623.958C338.055 623.324 335.738 622.896 332.841 622.634C329.945 622.372 326.235 622.441 321.71 622.827C319.186 623.089 316.814 623.793 314.538 624.993C312.262 626.193 310.262 627.655 308.497 629.421C306.731 631.186 305.352 633.158 304.345 635.365C303.338 637.572 302.841 639.683 302.841 641.683C302.841 646.703 304.276 650.758 307.173 653.848C310.069 656.938 313.655 659.627 317.917 661.958C322.179 664.29 326.841 666.552 331.876 668.745C336.91 670.938 341.586 673.627 345.931 676.758C350.276 679.889 353.876 683.834 356.772 688.538C359.669 693.241 361.104 699.31 361.104 706.731C361.159 711.765 360.11 716.634 358.041 721.352ZM493.255 705.6C490.304 714.524 486.207 721.945 480.993 727.848C475.779 733.752 469.683 738.221 462.704 741.241C455.724 744.262 448.083 745.765 439.793 745.765C431.504 745.765 423.862 744.262 416.883 741.241C409.904 738.221 403.807 733.765 398.593 727.848C393.379 721.931 389.283 714.524 386.331 705.6C383.379 696.676 381.904 686.358 381.904 674.676C381.904 662.993 383.379 652.703 386.331 643.848C389.283 634.993 393.379 627.6 398.593 621.696C403.807 615.793 409.904 611.296 416.883 608.207C423.862 605.117 431.504 603.586 439.793 603.586C448.083 603.586 455.724 605.117 462.704 608.207C469.683 611.296 475.779 615.779 480.993 621.696C486.207 627.614 490.304 634.993 493.255 643.848C496.207 652.703 497.683 662.993 497.683 674.676C497.683 686.358 496.207 696.676 493.255 705.6ZM630.069 744.827H607.062L552.566 649.034V744.827H529.559V605.848H552.566L607.062 701.641V605.848H630.069V744.827Z" fill="#8F9CCB"></path>
    </symbol>
    <symbol xmlns="http://www.w3.org/2000/svg" viewBox="-4 0 64 64" id="xls">
        <path d="M5.112.006c-2.802 0-5.073 2.273-5.073 5.074v53.841c0 2.803 2.271 5.074 5.073 5.074h45.774c2.801 0 5.074-2.271 5.074-5.074v-38.605l-18.902-20.31h-31.946z"
              fill-rule="evenodd" clip-rule="evenodd" fill="#45B058"></path>
        <path d="M19.429 53.938c-.216 0-.415-.09-.54-.27l-3.728-4.97-3.745 4.97c-.126.18-.324.27-.54.27-.396 0-.72-.306-.72-.72 0-.144.035-.306.144-.432l3.89-5.131-3.619-4.826c-.09-.126-.145-.27-.145-.414 0-.342.288-.72.721-.72.216 0 .432.108.576.288l3.438 4.628 3.438-4.646c.127-.18.324-.27.541-.27.378 0 .738.306.738.72 0 .144-.036.288-.127.414l-3.619 4.808 3.891 5.149c.09.126.125.27.125.414 0 .396-.324.738-.719.738zm9.989-.126h-5.455c-.595 0-1.081-.486-1.081-1.08v-10.317c0-.396.324-.72.774-.72.396 0 .721.324.721.72v10.065h5.041c.359 0 .648.288.648.648 0 .396-.289.684-.648.684zm6.982.216c-1.782 0-3.188-.594-4.213-1.495-.162-.144-.234-.342-.234-.54 0-.36.27-.756.702-.756.144 0 .306.036.433.144.828.738 1.98 1.314 3.367 1.314 2.143 0 2.826-1.152 2.826-2.071 0-3.097-7.111-1.386-7.111-5.672 0-1.98 1.764-3.331 4.123-3.331 1.548 0 2.881.468 3.853 1.278.162.144.253.342.253.54 0 .36-.307.72-.703.72-.145 0-.307-.054-.432-.162-.883-.72-1.98-1.044-3.079-1.044-1.44 0-2.467.774-2.467 1.909 0 2.701 7.112 1.152 7.112 5.636 0 1.748-1.188 3.53-4.43 3.53z"
              fill="#ffffff"></path>
        <path d="M55.953 20.352v1h-12.801s-6.312-1.26-6.127-6.707c0 0 .207 5.707 6.002 5.707h12.926z"
              fill-rule="evenodd" clip-rule="evenodd" fill="#349C42"></path>
        <path d="M37.049 0v14.561c0 1.656 1.104 5.791 6.104 5.791h12.801l-18.905-20.352z" opacity=".5"
              fill-rule="evenodd" clip-rule="evenodd" fill="#ffffff"></path>
    </symbol>
    <symbol xmlns="http://www.w3.org/2000/svg" viewBox="-4 0 64 64" id="csv">
        <path d="M5.106 0c-2.802 0-5.073 2.272-5.073 5.074v53.841c0 2.803 2.271 5.074 5.073 5.074h45.774c2.801 0 5.074-2.271 5.074-5.074v-38.605l-18.903-20.31h-31.945z"
              fill-rule="evenodd" clip-rule="evenodd" fill="#45B058"></path>
        <path d="M20.306 43.197c.126.144.198.324.198.522 0 .378-.306.72-.703.72-.18 0-.378-.072-.504-.234-.702-.846-1.891-1.387-3.007-1.387-2.629 0-4.627 2.017-4.627 4.88 0 2.845 1.999 4.879 4.627 4.879 1.134 0 2.25-.486 3.007-1.369.125-.144.324-.233.504-.233.415 0 .703.359.703.738 0 .18-.072.36-.198.504-.937.972-2.215 1.693-4.015 1.693-3.457 0-6.176-2.521-6.176-6.212s2.719-6.212 6.176-6.212c1.8.001 3.096.721 4.015 1.711zm6.802 10.714c-1.782 0-3.187-.594-4.213-1.495-.162-.144-.234-.342-.234-.54 0-.361.27-.757.702-.757.144 0 .306.036.432.144.828.739 1.98 1.314 3.367 1.314 2.143 0 2.827-1.152 2.827-2.071 0-3.097-7.112-1.386-7.112-5.672 0-1.98 1.764-3.331 4.123-3.331 1.548 0 2.881.467 3.853 1.278.162.144.252.342.252.54 0 .36-.306.72-.703.72-.144 0-.306-.054-.432-.162-.882-.72-1.98-1.044-3.079-1.044-1.44 0-2.467.774-2.467 1.909 0 2.701 7.112 1.152 7.112 5.636.001 1.748-1.187 3.531-4.428 3.531zm16.994-11.254l-4.159 10.335c-.198.486-.685.81-1.188.81h-.036c-.522 0-1.008-.324-1.207-.81l-4.142-10.335c-.036-.09-.054-.18-.054-.288 0-.36.323-.793.81-.793.306 0 .594.18.72.486l3.889 9.992 3.889-9.992c.108-.288.396-.486.72-.486.468 0 .81.378.81.793.001.09-.017.198-.052.288z"
              fill="#ffffff"></path>
        <g fill-rule="evenodd" clip-rule="evenodd">
            <path d="M56.001 20.357v1h-12.8s-6.312-1.26-6.128-6.707c0 0 .208 5.707 6.003 5.707h12.925z"
                  fill="#349C42"></path>
            <path d="M37.098.006v14.561c0 1.656 1.104 5.791 6.104 5.791h12.8l-18.904-20.352z" opacity=".5"
                  fill="#ffffff"></path>
        </g>
    </symbol>

</svg>